<svg xmlns="http://www.w3.org/2000/svg" version="1.1" xmlns:xlink="http://www.w3.org/1999/xlink" xmlns:svgjs="http://svgjs.dev/svgjs" width="2000" height="368" viewBox="0 0 2000 368"><g transform="matrix(1,0,0,1,-1.2121212121212466,0.5070051455980433)"><svg viewBox="0 0 396 73" data-background-color="#ffffff" preserveAspectRatio="xMidYMid meet" height="368" width="2000" xmlns="http://www.w3.org/2000/svg" xmlns:xlink="http://www.w3.org/1999/xlink"><g id="tight-bounds" transform="matrix(1,0,0,1,0.2400000000000091,-0.10057439029526449)"><svg viewBox="0 0 395.52 73.20114878059053" height="73.20114878059053" width="395.52"><g><svg viewBox="0 0 497.9293655070307 92.15463583815027" height="73.20114878059053" width="395.52"><g transform="matrix(1,0,0,1,102.40936550703071,12.736277456647393)"><svg viewBox="0 0 395.52 66.68208092485548" height="66.68208092485548" width="395.52"><g id="textblocktransform"><svg viewBox="0 0 395.52 66.68208092485548" height="66.68208092485548" width="395.52" id="textblock"><g><svg viewBox="0 0 395.52 66.68208092485548" height="66.68208092485548" width="395.52"><g transform="matrix(1,0,0,1,0,0)"><svg width="395.52" viewBox="3.450000047683716 -35 207.5800018310547 35" height="66.68208092485548" data-palette-color="#551e19"><path d="M22.1 0L12.7 0Q9.85 0 7.78-1.23 5.7-2.45 4.58-4.58 3.45-6.7 3.45-9.35L3.45-9.35 3.45-35 8.25-35 8.25-8.75Q8.25-6.8 9.47-5.53 10.7-4.25 12.7-4.25L12.7-4.25 22.1-4.25 22.1 0ZM44.45 0L26.2 0 26.2-4.25 32.95-4.25 32.95-30.75 26.2-30.75 26.2-35 44.45-35 44.45-30.75 37.75-30.75 37.75-4.25 44.45-4.25 44.45 0ZM66.7 0L64.34 0Q61.5 0 59.42-1.23 57.34-2.45 56.22-4.58 55.09-6.7 55.09-9.35L55.09-9.35 55.09-30.75 44.45-30.75 44.45-35 70.55-35 70.55-30.75 59.9-30.75 59.9-8.75Q59.9-6.8 61.12-5.53 62.34-4.25 64.4-4.25L64.4-4.25 66.7-4.25 66.7 0ZM80.29 0L75.49 0 75.49-35 90.84-35Q94.14-35 96.84-33.58 99.54-32.15 101.14-29.58 102.74-27 102.74-23.55L102.74-23.55Q102.74-20.05 100.97-17.38 99.19-14.7 96.19-13.4L96.19-13.4 99.94-5.8Q100.34-5 100.82-4.63 101.29-4.25 102.19-4.25L102.19-4.25 104.69-4.25 104.69 0 101.44 0Q99.49 0 98.02-1 96.54-2 95.59-3.7L95.59-3.7 91.39-12.25Q90.89-12.2 90.32-12.18 89.74-12.15 89.14-12.15L89.14-12.15 80.29-12.15 80.29 0ZM80.29-30.75L80.29-16.4 90.19-16.4Q92.34-16.4 94.12-17.25 95.89-18.1 96.92-19.7 97.94-21.3 97.94-23.55L97.94-23.55Q97.94-25.85 96.89-27.45 95.84-29.05 94.09-29.9 92.34-30.75 90.24-30.75L90.24-30.75 80.29-30.75ZM126.44 0L108.19 0 108.19-4.25 114.94-4.25 114.94-30.75 108.19-30.75 108.19-35 126.44-35 126.44-30.75 119.74-30.75 119.74-4.25 126.44-4.25 126.44 0ZM148.69 0L146.34 0Q143.49 0 141.41-1.23 139.34-2.45 138.21-4.58 137.09-6.7 137.09-9.35L137.09-9.35 137.09-30.75 126.44-30.75 126.44-35 152.54-35 152.54-30.75 141.89-30.75 141.89-8.75Q141.89-6.8 143.11-5.53 144.34-4.25 146.39-4.25L146.39-4.25 148.69-4.25 148.69 0ZM179.64 0L165.94 0Q163.04 0 160.81-1.38 158.59-2.75 157.34-5 156.09-7.25 156.09-9.9L156.09-9.9Q156.09-12.3 157.21-14.4 158.34-16.5 160.49-17.7L160.49-17.7Q158.39-19.05 157.29-21.05 156.19-23.05 156.19-25.25L156.19-25.25Q156.19-27.95 157.46-30.15 158.74-32.35 160.94-33.68 163.14-35 165.79-35L165.79-35 179.64-35 179.64-30.75 166.34-30.75Q164.79-30.75 163.59-30 162.39-29.25 161.69-28.03 160.99-26.8 160.99-25.25L160.99-25.25Q160.99-23.8 161.71-22.6 162.44-21.4 163.69-20.68 164.94-19.95 166.44-19.95L166.44-19.95 177.79-19.95 177.79-15.7 166.79-15.7Q164.94-15.7 163.61-14.88 162.29-14.05 161.56-12.73 160.84-11.4 160.84-9.9L160.84-9.9Q160.84-8.4 161.54-7.1 162.24-5.8 163.54-5.03 164.84-4.25 166.59-4.25L166.59-4.25 179.64-4.25 179.64 0ZM201.18 0L185.48 0 185.48-4.25 200.63-4.25Q202.38-4.25 203.63-5.08 204.88-5.9 205.58-7.2 206.28-8.5 206.28-9.95L206.28-9.95Q206.28-11.45 205.61-12.73 204.93-14 203.71-14.78 202.48-15.55 200.73-15.55L200.73-15.55 194.13-15.55Q191.18-15.55 188.93-16.78 186.68-18 185.41-20.18 184.13-22.35 184.13-25.1L184.13-25.1Q184.13-27.9 185.36-30.15 186.58-32.4 188.81-33.7 191.03-35 193.93-35L193.93-35 208.78-35 208.78-30.75 194.38-30.75Q192.73-30.75 191.48-29.98 190.23-29.2 189.58-27.98 188.93-26.75 188.93-25.35L188.93-25.35Q188.93-24 189.56-22.78 190.18-21.55 191.41-20.8 192.63-20.05 194.23-20.05L194.23-20.05 200.98-20.05Q204.13-20.05 206.38-18.8 208.63-17.55 209.83-15.4 211.03-13.25 211.03-10.5L211.03-10.5Q211.03-7.45 209.81-5.08 208.58-2.7 206.33-1.35 204.08 0 201.18 0L201.18 0Z" opacity="1" transform="matrix(1,0,0,1,0,0)" fill="#551e19" class="wordmark-text-0" data-fill-palette-color="primary" id="text-0"></path></svg></g></svg></g></svg></g></svg></g><g><svg viewBox="0 0 86.66732657061453 92.15463583815027" height="92.15463583815027" width="86.66732657061453"><g><svg xmlns="http://www.w3.org/2000/svg" xmlns:xlink="http://www.w3.org/1999/xlink" version="1.1" x="0" y="0" viewBox="11.208999633789062 10.000991821289062 80.79000091552734 85.90518951416016" enable-background="new 0 0 100 100" xml:space="preserve" width="86.66732657061453" height="92.15463583815027" class="icon-icon-0" data-fill-palette-color="accent" id="icon-0"><path d="M11.209 93.443l2.368 2.46c0 0 6.971-4.058 9.114-15.075 0.521-2.676 1.34-5.64 6.39-8.778 0 0 6.529 14.672 31.672 12.143 0 0-5.56-2.544-5.644-6.99 0 0 10.045 3.723 17.003 0.672 0 0-3.006-2.327-2.897-4.327 0 0 11.017-0.707 13.287-4.396l-4.097-1.679c0 0 8.012-3.996 10.464-9.575 0 0-7.72 1.07-15.489-4.414 0 0 9.524-6.297 11.858-15.654 0 0-3.405 1.155-5.724-0.266 0 0 7.268-5.589 7.887-11.146l-5.107 2.455c0 0 5.561-16.9 9.705-18.872 0 0-14.745 7.862-15.611 9.81l-0.083-4.445c0 0-7.963 9.59-9.444 9.297 0 0-2.216-6.312-1.239-8.331 0 0-7.801 16.552-17.636 15.663 0 0-6.951-13.023-6.254-16.543 0 0-3.884 12.323-9.284 16.259-5.4 3.937-7.179 12.923-4.485 17.305 0 0-3.658-4.862-6.308-5.58 0 0-4.491 19.936 6.275 26.813 0 0-5.847 3.112-8.032 12.21C17.712 91.554 11.411 92.425 11.209 93.443z" fill="#c56e33" data-fill-palette-color="accent"></path><path d="M27.834 70.494c0.434-0.231 1.248 1.556 1.248 1.556s-5.236 2.144-6.613 9.827c-1.378 7.683-8.058 14.194-8.891 14.026-0.833-0.167-2.368-2.46-2.368-2.46s9.015-5.018 9.079-11.423C20.329 78.082 24.249 72.408 27.834 70.494z" fill="#c56e33" data-fill-palette-color="accent"></path><g fill="#c56e33" data-fill-palette-color="accent"></g></svg></g></svg></g></svg></g><defs></defs></svg><rect width="395.52" height="73.20114878059053" fill="none" stroke="none" visibility="hidden"></rect></g></svg></g></svg>